<mxfile host="app.diagrams.net" agent="Mozilla/5.0 (X11; Linux x86_64; rv:135.0) Gecko/20100101 Firefox/135.0" version="26.0.11">
  <diagram name="Page-1" id="iFYPyggZZip7onPklAIf">
    <mxGraphModel dx="1062" dy="554" grid="1" gridSize="10" guides="1" tooltips="1" connect="1" arrows="1" fold="1" page="1" pageScale="1" pageWidth="827" pageHeight="1169" math="0" shadow="0">
      <root>
        <mxCell id="0" />
        <mxCell id="1" parent="0" />
        <mxCell id="pTnqiEGoBfZLtPKK_kVA-1" value="" style="rounded=1;whiteSpace=wrap;html=1;dashed=1;dashPattern=8 8;strokeWidth=2;strokeColor=#6666FF;" vertex="1" parent="1">
          <mxGeometry x="320" y="190" width="270" height="370" as="geometry" />
        </mxCell>
        <mxCell id="pTnqiEGoBfZLtPKK_kVA-4" style="edgeStyle=orthogonalEdgeStyle;rounded=0;orthogonalLoop=1;jettySize=auto;html=1;entryX=0.5;entryY=0;entryDx=0;entryDy=0;strokeColor=#67AB9F;strokeWidth=3;" edge="1" parent="1" source="pTnqiEGoBfZLtPKK_kVA-2" target="pTnqiEGoBfZLtPKK_kVA-3">
          <mxGeometry relative="1" as="geometry" />
        </mxCell>
        <mxCell id="pTnqiEGoBfZLtPKK_kVA-8" style="edgeStyle=orthogonalEdgeStyle;rounded=0;orthogonalLoop=1;jettySize=auto;html=1;entryX=0;entryY=0.5;entryDx=0;entryDy=0;strokeColor=#4D4D4D;strokeWidth=2;" edge="1" parent="1" source="pTnqiEGoBfZLtPKK_kVA-2" target="pTnqiEGoBfZLtPKK_kVA-6">
          <mxGeometry relative="1" as="geometry" />
        </mxCell>
        <mxCell id="pTnqiEGoBfZLtPKK_kVA-2" value="&lt;font face=&quot;Courier New&quot; style=&quot;font-size: 19px;&quot;&gt;&lt;span style=&quot;color: rgb(255, 255, 255); background-color: rgb(126, 166, 224);&quot;&gt;&lt;b&gt;&lt;font&gt;healthcheck&lt;/font&gt;&lt;/b&gt;&lt;/span&gt;&lt;/font&gt;" style="rounded=1;whiteSpace=wrap;html=1;" vertex="1" parent="1">
          <mxGeometry x="360" y="210" width="160" height="110" as="geometry" />
        </mxCell>
        <mxCell id="pTnqiEGoBfZLtPKK_kVA-10" style="edgeStyle=orthogonalEdgeStyle;rounded=0;orthogonalLoop=1;jettySize=auto;html=1;entryX=0;entryY=0.5;entryDx=0;entryDy=0;strokeColor=#4D4D4D;strokeWidth=2;" edge="1" parent="1" source="pTnqiEGoBfZLtPKK_kVA-3" target="pTnqiEGoBfZLtPKK_kVA-9">
          <mxGeometry relative="1" as="geometry" />
        </mxCell>
        <mxCell id="pTnqiEGoBfZLtPKK_kVA-3" value="&lt;font style=&quot;font-size: 19px; color: rgb(255, 255, 255); background-color: rgb(234, 107, 102);&quot; face=&quot;Courier New&quot;&gt;&lt;b&gt;&lt;span&gt;mariaDB&lt;/span&gt;&lt;/b&gt;&lt;/font&gt;" style="rounded=1;whiteSpace=wrap;html=1;" vertex="1" parent="1">
          <mxGeometry x="360" y="430" width="160" height="110" as="geometry" />
        </mxCell>
        <mxCell id="pTnqiEGoBfZLtPKK_kVA-5" value="&lt;b&gt;&lt;span style=&quot;color: rgb(103, 171, 159);&quot;&gt;check DB status&lt;/span&gt;&lt;/b&gt;" style="text;html=1;align=center;verticalAlign=middle;whiteSpace=wrap;rounded=0;" vertex="1" parent="1">
          <mxGeometry x="450" y="360" width="60" height="30" as="geometry" />
        </mxCell>
        <mxCell id="pTnqiEGoBfZLtPKK_kVA-6" value="&lt;h1 style=&quot;line-height: 180%;&quot; align=&quot;left&quot;&gt;&lt;font face=&quot;Courier New&quot;&gt;&lt;b style=&quot;background-color: rgb(77, 77, 77);&quot;&gt;&lt;font style=&quot;font-size: 19px; color: rgb(255, 255, 255); line-height: 180%;&quot;&gt;:8080&lt;/font&gt;&lt;/b&gt;&lt;/font&gt;&lt;/h1&gt;" style="text;html=1;align=left;verticalAlign=middle;whiteSpace=wrap;rounded=0;glass=0;strokeWidth=1;perimeterSpacing=0;" vertex="1" parent="1">
          <mxGeometry x="560" y="246" width="60" height="40" as="geometry" />
        </mxCell>
        <mxCell id="pTnqiEGoBfZLtPKK_kVA-9" value="&lt;h1 style=&quot;line-height: 180%;&quot; align=&quot;left&quot;&gt;&lt;font face=&quot;Courier New&quot;&gt;&lt;b style=&quot;background-color: rgb(77, 77, 77);&quot;&gt;&lt;font style=&quot;font-size: 19px; color: rgb(255, 255, 255); line-height: 180%;&quot;&gt;:3306&lt;/font&gt;&lt;/b&gt;&lt;/font&gt;&lt;/h1&gt;" style="text;html=1;align=left;verticalAlign=middle;whiteSpace=wrap;rounded=0;glass=0;strokeWidth=1;perimeterSpacing=0;" vertex="1" parent="1">
          <mxGeometry x="560" y="465" width="60" height="40" as="geometry" />
        </mxCell>
        <mxCell id="pTnqiEGoBfZLtPKK_kVA-11" value="&lt;div align=&quot;center&quot;&gt;&lt;font style=&quot;background-color: light-dark(rgb(0, 102, 204), rgb(255, 255, 255)); font-size: 21px; color: rgb(255, 255, 255);&quot; face=&quot;Courier New&quot;&gt;&lt;b&gt;POD&lt;/b&gt;&lt;/font&gt;&lt;/div&gt;" style="text;html=1;align=center;verticalAlign=middle;whiteSpace=wrap;rounded=0;glass=0;strokeWidth=1;perimeterSpacing=0;" vertex="1" parent="1">
          <mxGeometry x="414" y="570" width="75" height="40" as="geometry" />
        </mxCell>
        <mxCell id="pTnqiEGoBfZLtPKK_kVA-16" style="edgeStyle=orthogonalEdgeStyle;rounded=0;orthogonalLoop=1;jettySize=auto;html=1;entryX=1;entryY=0.75;entryDx=0;entryDy=0;curved=1;dashed=1;dashPattern=1 2;strokeWidth=2;strokeColor=#FF0000;" edge="1" parent="1" source="pTnqiEGoBfZLtPKK_kVA-14" target="pTnqiEGoBfZLtPKK_kVA-6">
          <mxGeometry relative="1" as="geometry" />
        </mxCell>
        <mxCell id="pTnqiEGoBfZLtPKK_kVA-14" value="&lt;div style=&quot;color: rgb(204, 204, 204); font-family: &amp;quot;Droid Sans Mono&amp;quot;, &amp;quot;monospace&amp;quot;, monospace; font-weight: normal; font-size: 14px; line-height: 19px; white-space: pre;&quot;&gt;&lt;div&gt;&lt;font style=&quot;font-size: 11px; background-color: rgb(102, 0, 204); color: rgb(255, 255, 255);&quot;&gt;&lt;span style=&quot;color: rgb(255, 255, 255);&quot;&gt;liveness &amp;amp; &lt;/span&gt;readiness&lt;/font&gt;&lt;/div&gt;&lt;/div&gt;" style="text;html=1;align=center;verticalAlign=middle;whiteSpace=wrap;rounded=0;" vertex="1" parent="1">
          <mxGeometry x="375" y="295" width="140" height="20" as="geometry" />
        </mxCell>
        <mxCell id="pTnqiEGoBfZLtPKK_kVA-18" style="edgeStyle=orthogonalEdgeStyle;rounded=0;orthogonalLoop=1;jettySize=auto;html=1;entryX=1;entryY=0.25;entryDx=0;entryDy=0;curved=1;dashed=1;dashPattern=1 2;strokeWidth=2;strokeColor=#FF0000;" edge="1" parent="1" source="pTnqiEGoBfZLtPKK_kVA-17" target="pTnqiEGoBfZLtPKK_kVA-6">
          <mxGeometry relative="1" as="geometry">
            <Array as="points">
              <mxPoint x="700" y="520" />
              <mxPoint x="700" y="256" />
            </Array>
          </mxGeometry>
        </mxCell>
        <mxCell id="pTnqiEGoBfZLtPKK_kVA-17" value="&lt;div style=&quot;color: rgb(204, 204, 204); font-family: &amp;quot;Droid Sans Mono&amp;quot;, &amp;quot;monospace&amp;quot;, monospace; font-weight: normal; font-size: 14px; line-height: 19px; white-space: pre;&quot;&gt;&lt;div&gt;&lt;font style=&quot;font-size: 11px; background-color: rgb(102, 0, 204); color: rgb(255, 255, 255);&quot;&gt;&lt;span style=&quot;color: rgb(255, 255, 255);&quot;&gt;liveness &amp;amp; &lt;/span&gt;readiness&lt;/font&gt;&lt;/div&gt;&lt;/div&gt;" style="text;html=1;align=center;verticalAlign=middle;whiteSpace=wrap;rounded=0;" vertex="1" parent="1">
          <mxGeometry x="370" y="505" width="140" height="20" as="geometry" />
        </mxCell>
      </root>
    </mxGraphModel>
  </diagram>
</mxfile>
